    <svg display="none" xmlns="http://www.w3.org/2000/svg">
        <symbol id="sprt-mail" viewbox="0 0 24 24">
            <path d="M3 3h18a1 1 0 0 1 1 1v16a1 1 0 0 1-1 1H3a1 1 0 0 1-1-1V4a1 1 0 0 1 1-1Zm9.06 8.683L5.648 6.238 4.353 7.762l7.72 6.555 7.581-6.56-1.308-1.513-6.285 5.439h-.001Z"/>
            </symbol>
        <symbol id="sprt-phone" viewbox="0 0 24 24">
            <path
                d="M21 16.42V19.956C21.0001 20.2092 20.9042 20.453 20.7316 20.6382C20.559 20.8234 20.3226 20.9363 20.07 20.954C19.633 20.984 19.276 21 19 21C10.163 21 3 13.837 3 5C3 4.724 3.015 4.367 3.046 3.93C3.06372 3.67744 3.17658 3.44101 3.3618 3.26841C3.54703 3.09581 3.79082 2.99989 4.044 3H7.58C7.70404 2.99987 7.8237 3.04586 7.91573 3.12902C8.00776 3.21218 8.0656 3.32658 8.078 3.45C8.101 3.68 8.122 3.863 8.142 4.002C8.34073 5.38892 8.748 6.73783 9.35 8.003C9.445 8.203 9.383 8.442 9.203 8.57L7.045 10.112C8.36445 13.1865 10.8145 15.6365 13.889 16.956L15.429 14.802C15.4919 14.714 15.5838 14.6509 15.6885 14.6237C15.7932 14.5964 15.9042 14.6068 16.002 14.653C17.267 15.2539 18.6156 15.6601 20.002 15.858C20.141 15.878 20.324 15.9 20.552 15.922C20.6752 15.9346 20.7894 15.9926 20.8724 16.0846C20.9553 16.1766 21.0012 16.2961 21.001 16.42H21Z" />
        </symbol>
        <symbol id="sprt-facebook" viewbox="0 0 24 24">
            <path
                d="M14 13.5H16.5L17.5 9.5H14V7.5C14 6.47 14 5.5 16 5.5H17.5V2.14C17.174 2.097 15.943 2 14.643 2C11.928 2 10 3.657 10 6.7V9.5H7V13.5H10V22H14V13.5Z" />
        </symbol>
        <symbol id="sprt-instagram" viewbox="0 0 24 24">
            <path
                d="M12 2C14.717 2 15.056 2.01 16.122 2.06C17.187 2.11 17.912 2.277 18.55 2.525C19.21 2.779 19.766 3.123 20.322 3.678C20.8305 4.1779 21.224 4.78259 21.475 5.45C21.722 6.087 21.89 6.813 21.94 7.878C21.987 8.944 22 9.283 22 12C22 14.717 21.99 15.056 21.94 16.122C21.89 17.187 21.722 17.912 21.475 18.55C21.2247 19.2178 20.8311 19.8226 20.322 20.322C19.822 20.8303 19.2173 21.2238 18.55 21.475C17.913 21.722 17.187 21.89 16.122 21.94C15.056 21.987 14.717 22 12 22C9.283 22 8.944 21.99 7.878 21.94C6.813 21.89 6.088 21.722 5.45 21.475C4.78233 21.2245 4.17753 20.8309 3.678 20.322C3.16941 19.8222 2.77593 19.2175 2.525 18.55C2.277 17.913 2.11 17.187 2.06 16.122C2.013 15.056 2 14.717 2 12C2 9.283 2.01 8.944 2.06 7.878C2.11 6.812 2.277 6.088 2.525 5.45C2.77524 4.78218 3.1688 4.17732 3.678 3.678C4.17767 3.16923 4.78243 2.77573 5.45 2.525C6.088 2.277 6.812 2.11 7.878 2.06C8.944 2.013 9.283 2 12 2ZM12 7C10.6739 7 9.40215 7.52678 8.46447 8.46447C7.52678 9.40215 7 10.6739 7 12C7 13.3261 7.52678 14.5979 8.46447 15.5355C9.40215 16.4732 10.6739 17 12 17C13.3261 17 14.5979 16.4732 15.5355 15.5355C16.4732 14.5979 17 13.3261 17 12C17 10.6739 16.4732 9.40215 15.5355 8.46447C14.5979 7.52678 13.3261 7 12 7ZM18.5 6.75C18.5 6.41848 18.3683 6.10054 18.1339 5.86612C17.8995 5.6317 17.5815 5.5 17.25 5.5C16.9185 5.5 16.6005 5.6317 16.3661 5.86612C16.1317 6.10054 16 6.41848 16 6.75C16 7.08152 16.1317 7.39946 16.3661 7.63388C16.6005 7.8683 16.9185 8 17.25 8C17.5815 8 17.8995 7.8683 18.1339 7.63388C18.3683 7.39946 18.5 7.08152 18.5 6.75ZM12 9C12.7956 9 13.5587 9.31607 14.1213 9.87868C14.6839 10.4413 15 11.2044 15 12C15 12.7956 14.6839 13.5587 14.1213 14.1213C13.5587 14.6839 12.7956 15 12 15C11.2044 15 10.4413 14.6839 9.87868 14.1213C9.31607 13.5587 9 12.7956 9 12C9 11.2044 9.31607 10.4413 9.87868 9.87868C10.4413 9.31607 11.2044 9 12 9Z" />
        </symbol>
        <symbol id="sprt-twitter" viewbox="0 0 24 24">
            <path
                d="M22.1621 5.65599C21.3986 5.99368 20.589 6.21546 19.7601 6.31399C20.6338 5.79142 21.2878 4.969 21.6001 3.99999C20.7801 4.48799 19.8811 4.82999 18.9441 5.01499C18.3147 4.34157 17.4804 3.89495 16.571 3.74457C15.6616 3.59419 14.728 3.74848 13.9153 4.18344C13.1026 4.6184 12.4564 5.30967 12.0772 6.14978C11.6979 6.98989 11.6068 7.93177 11.8181 8.82899C10.1552 8.74564 8.52838 8.31351 7.04334 7.56065C5.55829 6.80779 4.24818 5.75104 3.19805 4.45899C2.82634 5.09744 2.63101 5.82321 2.63205 6.56199C2.63205 8.01199 3.37005 9.29299 4.49205 10.043C3.82806 10.0221 3.17869 9.84277 2.59805 9.51999V9.57199C2.59825 10.5377 2.93242 11.4736 3.5439 12.221C4.15538 12.9685 5.00653 13.4815 5.95305 13.673C5.33667 13.84 4.69036 13.8646 4.06305 13.745C4.32992 14.5762 4.85006 15.3032 5.55064 15.8241C6.25123 16.345 7.09718 16.6338 7.97005 16.65C7.10253 17.3313 6.10923 17.835 5.04693 18.1322C3.98464 18.4293 2.87418 18.5142 1.77905 18.382C3.69075 19.6114 5.91615 20.2641 8.18905 20.262C15.8821 20.262 20.0891 13.889 20.0891 8.36199C20.0891 8.18199 20.0841 7.99999 20.0761 7.82199C20.8949 7.23016 21.6017 6.49701 22.1631 5.65699L22.1621 5.65599Z" />
        </symbol>
        <symbol id="sprt-youtube" viewbox="0 0 24 24">
            <path
                d="M21.543 6.498C22 8.28 22 12 22 12C22 12 22 15.72 21.543 17.502C21.289 18.487 20.546 19.262 19.605 19.524C17.896 20 12 20 12 20C12 20 6.107 20 4.395 19.524C3.45 19.258 2.708 18.484 2.457 17.502C2 15.72 2 12 2 12C2 12 2 8.28 2.457 6.498C2.711 5.513 3.454 4.738 4.395 4.476C6.107 4 12 4 12 4C12 4 17.896 4 19.605 4.476C20.55 4.742 21.292 5.516 21.543 6.498ZM10 15.5L16 12L10 8.5V15.5Z" />
        </symbol>
        <symbol id="sprt-checkbox-circle" viewbox="0 0 24 24">
            <path
                d="M12 22C6.477 22 2 17.523 2 12C2 6.477 6.477 2 12 2C17.523 2 22 6.477 22 12C22 17.523 17.523 22 12 22ZM11.003 16L18.073 8.929L16.659 7.515L11.003 13.172L8.174 10.343L6.76 11.757L11.003 16Z" />
        </symbol>
        <symbol id="sprt-arrow-left-b" viewbox="0 0 50 50">
            <path
                d="M22.5584 25L32.8709 35.3125L29.9251 38.2583L16.6667 25L29.9251 11.7416L32.8709 14.6875L22.5584 25Z" />
        </symbol>
        <symbol id="sprt-video-play" viewbox="0 0 24 24">
            <path
                d="M3 3.993C3 3.445 3.445 3 3.993 3H20.007C20.555 3 21 3.445 21 3.993V20.007C20.9997 20.2703 20.895 20.5227 20.7089 20.7089C20.5227 20.895 20.2703 20.9997 20.007 21H3.993C3.72972 20.9997 3.4773 20.895 3.29114 20.7089C3.10497 20.5227 3.00026 20.2703 3 20.007V3.993ZM10.622 8.415C10.5618 8.37485 10.4919 8.35177 10.4196 8.34822C10.3473 8.34467 10.2755 8.36079 10.2116 8.39486C10.1478 8.42893 10.0944 8.47967 10.0572 8.54168C10.0199 8.60369 10.0001 8.67465 10 8.747V15.253C10.0001 15.3253 10.0199 15.3963 10.0572 15.4583C10.0944 15.5203 10.1478 15.5711 10.2116 15.6051C10.2755 15.6392 10.3473 15.6553 10.4196 15.6518C10.4919 15.6482 10.5618 15.6252 10.622 15.585L15.501 12.333C15.5559 12.2965 15.6009 12.247 15.632 12.1889C15.6631 12.1308 15.6794 12.0659 15.6794 12C15.6794 11.9341 15.6631 11.8692 15.632 11.8111C15.6009 11.753 15.5559 11.7035 15.501 11.667L10.621 8.415H10.622Z" />
        </symbol>
        <symbol id="sprt-download" viewbox="0 0 24 24">
            <path
                d="M4 19H20V12H22V20C22 20.2652 21.8946 20.5196 21.7071 20.7071C21.5196 20.8946 21.2652 21 21 21H3C2.73478 21 2.48043 20.8946 2.29289 20.7071C2.10536 20.5196 2 20.2652 2 20V12H4V19ZM14 9H19L12 16L5 9H10V3H14V9Z" />
        </symbol>
        <symbol id="sprt-thumb-up" viewbox="0 0 24 24">
            <path
                d="M2 9H5V21H2C1.73478 21 1.48043 20.8946 1.29289 20.7071C1.10536 20.5196 1 20.2652 1 20V10C1 9.73479 1.10536 9.48043 1.29289 9.2929C1.48043 9.10536 1.73478 9 2 9ZM7.293 7.707L13.693 1.307C13.7781 1.2217 13.8911 1.16997 14.0112 1.16134C14.1314 1.1527 14.2506 1.18774 14.347 1.26L15.2 1.9C15.4369 2.07785 15.6158 2.32186 15.7143 2.60126C15.8127 2.88066 15.8262 3.18295 15.753 3.47L14.6 8H21C21.5304 8 22.0391 8.21072 22.4142 8.58579C22.7893 8.96086 23 9.46957 23 10V12.104C23.0003 12.3654 22.9493 12.6242 22.85 12.866L19.755 20.381C19.6795 20.5642 19.5513 20.7209 19.3866 20.8311C19.2219 20.9413 19.0282 21.0001 18.83 21H8C7.73478 21 7.48043 20.8946 7.29289 20.7071C7.10536 20.5196 7 20.2652 7 20V8.414C7.00006 8.14881 7.10545 7.8945 7.293 7.707Z" />
        </symbol>
        <symbol id="sprt-star" viewbox="0 0 24 24">
            <path
                d="M11.9999 18.26L4.94691 22.208L6.52191 14.28L0.586914 8.792L8.61391 7.84L11.9999 0.5L15.3859 7.84L23.4129 8.792L17.4779 14.28L19.0529 22.208L11.9999 18.26Z" />
        </symbol>
        <symbol id="sprt-browser" viewbox="0 0 50 50">
            <path
                d="M22.0703 25H23.5352V23.5352C23.5352 22.7268 22.8786 22.0703 22.0703 22.0703C21.262 22.0703 20.6055 22.7268 20.6055 23.5352C20.6055 24.3435 21.262 25 22.0703 25Z" />
            <path
                d="M23.5352 27.9297C23.2403 27.9297 18.8457 27.9297 19.1406 27.9297C18.3323 27.9297 17.6758 28.5862 17.6758 29.3945V30.8594H23.5352V27.9297Z" />
            <path
                d="M29.3945 23.5352C29.3945 22.7268 28.738 22.0703 27.9297 22.0703C27.1214 22.0703 26.4648 22.7268 26.4648 23.5352V25H27.9297C28.738 25 29.3945 24.3435 29.3945 23.5352Z" />
            <path
                d="M23.5352 33.7891H20.6055V39.6484H29.3945V33.7891H26.4648V35.2539C26.4648 36.0634 25.8095 36.7188 25 36.7188C24.1905 36.7188 23.5352 36.0634 23.5352 35.2539V33.7891Z" />
            <path
                d="M0 44.043C0 46.4661 1.97144 48.4375 4.39453 48.4375H45.6055C48.0286 48.4375 50 46.4661 50 44.043V16.2109H0V44.043ZM14.7461 29.3945C14.7461 27.3689 16.1308 25.676 17.9985 25.1694C17.7944 24.6632 17.6758 24.1135 17.6758 23.5352C17.6758 21.1121 19.6472 19.1406 22.0703 19.1406C23.1998 19.1406 24.2207 19.5808 25 20.2835C25.7793 19.5808 26.8002 19.1406 27.9297 19.1406C30.3528 19.1406 32.3242 21.1121 32.3242 23.5352C32.3242 24.1135 32.2056 24.6632 32.0015 25.1694C33.8692 25.676 35.2539 27.3689 35.2539 29.3945V32.3242C35.2539 33.1337 34.5985 33.7891 33.7891 33.7891H32.3242V41.1133C32.3242 41.9228 31.6689 42.5781 30.8594 42.5781H19.1406C18.3311 42.5781 17.6758 41.9228 17.6758 41.1133V33.7891H16.2109C15.4015 33.7891 14.7461 33.1337 14.7461 32.3242V29.3945Z" />
            <path
                d="M32.3243 29.3945C32.3243 28.5862 31.6677 27.9297 30.8594 27.9297C30.5645 27.9297 26.17 27.9297 26.4649 27.9297V30.8594H32.3243V29.3945Z" />
            <path
                d="M45.6055 1.5625H4.39453C1.97144 1.5625 0 3.53394 0 5.95703V13.2812H50V5.95703C50 3.53394 48.0286 1.5625 45.6055 1.5625ZM7.32155 10.3516C6.51245 10.3516 5.8567 9.69582 5.8567 8.88672C5.8567 8.07762 6.51245 7.42188 7.32155 7.42188C8.13065 7.42188 8.78639 8.07762 8.78639 8.88672C8.78639 9.69582 8.13065 10.3516 7.32155 10.3516ZM13.2786 10.3516C12.4695 10.3516 11.8137 9.69582 11.8137 8.88672C11.8137 8.07762 12.4695 7.42188 13.2786 7.42188C14.0877 7.42188 14.7434 8.07762 14.7434 8.88672C14.7434 9.69582 14.0877 10.3516 13.2786 10.3516ZM19.138 10.3516C18.3289 10.3516 17.6731 9.69582 17.6731 8.88672C17.6731 8.07762 18.3289 7.42188 19.138 7.42188C19.9471 7.42188 20.6028 8.07762 20.6028 8.88672C20.6028 9.69582 19.9471 10.3516 19.138 10.3516ZM42.6758 10.3516H33.7891C32.9796 10.3516 32.3242 9.6962 32.3242 8.88672C32.3242 8.07724 32.9796 7.42188 33.7891 7.42188H42.6758C43.4853 7.42188 44.1406 8.07724 44.1406 8.88672C44.1406 9.6962 43.4853 10.3516 42.6758 10.3516Z" />
        </symbol>
        <symbol id="sprt-pen-up" viewbox="0 0 50 50">
            <path
                d="M48.5352 0H42.5781C41.7685 0 41.1133 0.655176 41.1133 1.46484V2.92969H29.1247C28.518 1.22832 26.9072 0 25 0C23.0928 0 21.482 1.22832 20.8753 2.92969H8.88672V1.46484C8.88672 0.655176 8.23154 0 7.42188 0H1.46484C0.655176 0 0 0.655176 0 1.46484V7.32422C0 8.13389 0.655176 8.78906 1.46484 8.78906H7.42188C8.23154 8.78906 8.88672 8.13389 8.88672 7.32422V5.83984H14.9027C9.81904 9.01572 6.46699 14.5937 6.06631 20.8413C4.30869 21.4166 3.02734 23.0527 3.02734 25C3.02734 27.4232 4.99863 29.3945 7.42188 29.3945C9.84512 29.3945 11.8164 27.4232 11.8164 25C11.8164 23.1309 10.6386 21.5417 8.99023 20.9075C9.49004 13.9422 14.3502 8.07148 21.1106 6.39648C21.8418 7.81025 23.3015 8.78906 25 8.78906C26.6985 8.78906 28.1582 7.81025 28.8894 6.39648C35.6498 8.07139 40.51 13.9421 41.0098 20.9074C39.3614 21.5417 38.1836 23.1309 38.1836 25C38.1836 27.4232 40.1549 29.3945 42.5781 29.3945C45.0014 29.3945 46.9727 27.4232 46.9727 25C46.9727 23.0527 45.6913 21.4166 43.9337 20.8413C43.533 14.5937 40.181 9.03525 35.0973 5.85938H41.1133V7.32422C41.1133 8.13389 41.7685 8.78906 42.5781 8.78906H48.5352C49.3448 8.78906 50 8.13389 50 7.32422V1.46484C50 0.655176 49.3448 0 48.5352 0Z" />
            <path
                d="M34.9659 48.1831C34.1997 45.8385 31.9923 44.043 29.3946 44.043H20.6056C18.0079 44.043 15.8005 45.8385 15.0343 48.1831C14.7389 49.0871 15.5079 50 16.4591 50H33.5411C34.4922 50 35.2613 49.0871 34.9659 48.1831Z" />
            <path
                d="M37.9375 30.0469L26.4649 12.8378V26.7347C28.1662 27.3414 29.3945 28.9522 29.3945 30.8594C29.3945 33.2826 27.4233 35.2539 25 35.2539C22.5768 35.2539 20.6055 33.2826 20.6055 30.8594C20.6055 28.9522 21.8338 27.3414 23.5352 26.7347V12.8378L12.0625 30.0469C11.6748 30.6276 11.7521 31.4016 12.2456 31.8951C14.9348 34.5843 16.6537 38.0486 17.3171 41.7648C18.3347 41.352 19.4414 41.1133 20.6055 41.1133H29.3945C30.5586 41.1133 31.6653 41.3519 32.6829 41.7646C33.3463 38.0483 35.0652 34.5843 37.7544 31.8951C38.248 31.4016 38.3252 30.6276 37.9375 30.0469Z" />
            <path
                d="M25 29.3945C24.1918 29.3945 23.5352 30.0512 23.5352 30.8594C23.5352 31.6676 24.1918 32.3242 25 32.3242C25.8082 32.3242 26.4648 31.6676 26.4648 30.8594C26.4648 30.0512 25.8082 29.3945 25 29.3945Z" />
        </symbol>
        <symbol id="sprt-comment" viewbox="0 0 50 50">
            <path
                d="M41.9686 3.36923H7.98254C4.42915 3.36923 1.53809 6.2603 1.53809 9.81369V30.6125C1.53809 34.159 4.41656 37.0449 7.95965 37.0569V46.4957L21.5229 37.0578H41.9686C45.522 37.0578 48.4131 34.1667 48.4131 30.6125V9.81369C48.4131 6.2603 45.522 3.36923 41.9686 3.36923ZM35.8669 27.54H14.0842V24.7934H35.8669V27.54ZM35.8669 21.6806H14.0842V18.9341H35.8669V21.6806ZM35.8669 15.8213H14.0842V13.0747H35.8669V15.8213Z" />
        </symbol>
        <symbol id="sprt-cell-phone" viewbox="0 0 50 50">
            <path
                d="M35.5184 0H14.4814C12.468 0 10.8428 1.63253 10.8428 3.64223V46.3614C10.8428 48.3693 12.468 50 14.4814 50H35.5184C37.5281 50 39.157 48.3693 39.157 46.3614V3.64223C39.157 1.63253 37.5281 0 35.5184 0ZM19.809 2.21194H30.1945C30.4569 2.21194 30.67 2.60367 30.67 3.08833C30.67 3.57299 30.4569 3.96655 30.1945 3.96655H19.809C19.5448 3.96655 19.3352 3.57299 19.3352 3.08833C19.3352 2.60367 19.5448 2.21194 19.809 2.21194ZM25.0017 46.4051C23.7208 46.4051 22.6786 45.3629 22.6786 44.0802C22.6786 42.7975 23.7208 41.759 25.0017 41.759C26.279 41.759 27.3212 42.7975 27.3212 44.0802C27.3212 45.3629 26.279 46.4051 25.0017 46.4051ZM36.4313 38.4447H13.5703V6.14569H36.4313V38.4447Z" />
        </symbol>
        <symbol id="sprt-male-telemarketer" viewbox="0 0 50 50">
            <path
                d="M15.3748 22.2756C17.6645 27.3286 22.5665 29.5281 24.9997 29.5281C26.5995 29.5281 29.2667 28.5764 31.557 26.4888C30.7196 26.5472 29.8246 26.5768 28.8681 26.5768C28.6437 26.5768 28.4083 26.5748 28.1567 26.5708C27.6745 26.9421 27.0773 27.1515 26.4575 27.1515H24.4197C22.884 27.1515 21.6347 25.9021 21.6347 24.3664C21.6347 22.8307 22.884 21.5814 24.4197 21.5814H26.4575C27.1937 21.5814 27.8822 21.8683 28.3929 22.3633C28.5626 22.3652 28.7298 22.366 28.894 22.366C31.5246 22.366 33.2583 22.1247 34.3924 21.8337C34.2453 21.4757 34.1651 21.0841 34.1651 20.6751V13.6138C34.1651 12.8793 34.4378 12.1751 34.9092 11.6312C34.6576 9.67283 34.201 8.17775 33.5195 7.07489C32.1153 4.80218 29.408 3.74374 24.9997 3.74374C21.3426 3.74374 18.8172 4.50289 17.2794 6.06454C16.0872 7.27514 15.3964 9.00253 15.0735 11.6113C15.5555 12.1573 15.8343 12.8687 15.8343 13.6138V20.6751C15.8344 21.2627 15.6655 21.811 15.3748 22.2756Z" />
            <path
                d="M10.3645 22.3422H12.809C13.7293 22.3422 14.476 21.5958 14.476 20.6751V13.6138C14.476 12.9987 14.1419 12.4627 13.6463 12.1739C14.1922 6.39182 16.4234 2.38506 24.9999 2.38506C29.9251 2.38506 32.9996 3.64851 34.6755 6.36084C35.6507 7.9392 36.1198 9.97783 36.3389 12.1826C35.8512 12.4735 35.5238 13.0047 35.5238 13.6137V20.675C35.5238 21.4688 36.0791 22.1316 36.8221 22.2997C35.7445 23.0045 33.5135 23.7244 28.8941 23.7244C28.5199 23.7244 28.1299 23.7196 27.7237 23.7099C27.4859 23.2527 27.0088 22.9398 26.4578 22.9398H24.4201C23.6324 22.9398 22.9936 23.5785 22.9936 24.3663C22.9936 25.1541 23.6324 25.7928 24.4201 25.7928H26.4578C26.9338 25.7928 27.3544 25.5587 27.6134 25.2005C28.0424 25.2113 28.4625 25.2181 28.8684 25.2181C34.0754 25.218 37.3855 24.3292 38.7261 22.5658C38.7832 22.4908 38.8352 22.4161 38.8826 22.3422H39.6357C40.5561 22.3422 41.3026 21.5958 41.3026 20.6751V13.6138C41.3026 12.6933 40.5562 11.9469 39.6357 11.9469H38.7162C38.4575 9.28307 37.8841 7.01539 36.7046 5.1069C34.5815 1.67047 30.7526 0 24.9998 0C19.2466 0 15.4181 1.67047 13.2949 5.10704C12.1155 7.01552 11.5423 9.28293 11.2835 11.947H10.3643C9.44365 11.947 8.69727 12.6933 8.69727 13.614V20.6753C8.69727 21.5958 9.44379 22.3422 10.3645 22.3422Z" />
            <path
                d="M45.1536 43.1065C44.5993 39.6603 43.4582 35.2211 41.1698 33.6438C39.6093 32.5677 34.1616 29.657 31.8353 28.4142L31.7864 28.3881C31.5202 28.2459 31.1953 28.2744 30.958 28.4607C29.7376 29.4186 28.4016 30.0639 26.9872 30.3787C26.7373 30.4342 26.532 30.6121 26.4411 30.8515L24.9998 34.6501L23.5585 30.8515C23.4677 30.6119 23.2624 30.4342 23.0124 30.3787C21.598 30.0639 20.2618 29.4186 19.0412 28.4607C18.804 28.2743 18.4791 28.2458 18.2129 28.3881C15.9127 29.6171 10.3944 32.5889 8.8364 33.6392C6.20096 35.4147 5.05 41.8372 4.84609 43.1066C4.82584 43.2325 4.83753 43.3613 4.88005 43.4814C4.97433 43.7477 7.39173 50.0001 24.9997 50.0001C42.6074 50.0001 45.025 43.7477 45.1194 43.4816C45.1621 43.3612 45.1738 43.2323 45.1536 43.1065ZM36.955 39.149H29.9811V37.6803H36.955V39.149Z" />
        </symbol>
        <symbol id="sprt-eye-scanner" viewbox="0 0 56 56">
            <path
                d="M55.7736 28.861C49.4782 40.0097 39.0949 46.6667 27.9999 46.6667C16.9049 46.6667 6.52157 40.0097 0.226238 28.861C-0.0747617 28.3267 -0.0747617 27.6757 0.226238 27.1413C6.52157 15.9903 16.9049 9.33334 27.9999 9.33334C39.0949 9.33334 49.4782 15.9903 55.7736 27.139C56.0746 27.6733 56.0746 28.3267 55.7736 28.861ZM27.9999 18.6667C22.8526 18.6667 18.6666 22.8527 18.6666 28C18.6666 33.1473 22.8526 37.3333 27.9999 37.3333C33.1472 37.3333 37.3332 33.1473 37.3332 28C37.3332 22.8527 33.1472 18.6667 27.9999 18.6667Z" />
            <path
                d="M53.6666 37.3333C52.3786 37.3333 51.3333 38.3787 51.3333 39.6667V49C51.3333 50.2857 50.2856 51.3333 48.9999 51.3333H39.6666C38.3786 51.3333 37.3333 52.3787 37.3333 53.6667C37.3333 54.9547 38.3786 56 39.6666 56H48.9999C52.8593 56 55.9999 52.8593 55.9999 49V39.6667C55.9999 38.3787 54.9546 37.3333 53.6666 37.3333Z" />
            <path
                d="M2.33333 37.3333C1.04533 37.3333 0 38.3787 0 39.6667V49C0 52.8593 3.14067 56 7 56H16.3333C17.6213 56 18.6667 54.9547 18.6667 53.6667C18.6667 52.3787 17.6213 51.3333 16.3333 51.3333H7C5.71433 51.3333 4.66667 50.2857 4.66667 49V39.6667C4.66667 38.3787 3.62133 37.3333 2.33333 37.3333Z" />
            <path
                d="M48.9999 -7.62939e-06H39.6666C38.3786 -7.62939e-06 37.3333 1.04533 37.3333 2.33333C37.3333 3.62133 38.3786 4.66666 39.6666 4.66666H48.9999C50.2856 4.66666 51.3333 5.71433 51.3333 6.99999V16.3333C51.3333 17.6213 52.3786 18.6667 53.6666 18.6667C54.9546 18.6667 55.9999 17.6213 55.9999 16.3333V6.99999C55.9999 3.14066 52.8593 -7.62939e-06 48.9999 -7.62939e-06Z" />
            <path
                d="M16.3333 -7.62939e-06H7C3.14067 -7.62939e-06 0 3.14066 0 6.99999V16.3333C0 17.6213 1.04533 18.6667 2.33333 18.6667C3.62133 18.6667 4.66667 17.6213 4.66667 16.3333V6.99999C4.66667 5.71433 5.71433 4.66666 7 4.66666H16.3333C17.6213 4.66666 18.6667 3.62133 18.6667 2.33333C18.6667 1.04533 17.6213 -7.62939e-06 16.3333 -7.62939e-06Z" />
        </symbol>
        <symbol id="sprt-send-plane" viewbox="0 0 24 24">
            <path
                d="M3 13H9V11H3V1.846C3.00001 1.75911 3.02267 1.67373 3.06573 1.59827C3.1088 1.52281 3.17078 1.45987 3.24558 1.41566C3.32037 1.37144 3.4054 1.34749 3.49227 1.34614C3.57915 1.3448 3.66487 1.36612 3.741 1.408L22.203 11.562C22.2814 11.6052 22.3468 11.6686 22.3923 11.7456C22.4378 11.8227 22.4618 11.9105 22.4618 12C22.4618 12.0895 22.4378 12.1773 22.3923 12.2544C22.3468 12.3314 22.2814 12.3948 22.203 12.438L3.741 22.592C3.66487 22.6339 3.57915 22.6552 3.49227 22.6539C3.4054 22.6525 3.32037 22.6286 3.24558 22.5843C3.17078 22.5401 3.1088 22.4772 3.06573 22.4017C3.02267 22.3263 3.00001 22.2409 3 22.154V13Z" />
        </symbol>
        <symbol id="sprt-copyright" viewbox="0 0 24 24">
            <path
                d="M12 2C17.52 2 22 6.48 22 12C22 17.52 17.52 22 12 22C6.48 22 2 17.52 2 12C2 6.48 6.48 2 12 2ZM12 4C7.58 4 4 7.58 4 12C4 16.42 7.58 20 12 20C16.42 20 20 16.42 20 12C20 7.58 16.42 4 12 4ZM12 7C13.82 7 15.413 7.973 16.288 9.428L14.574 10.457C14.3043 10.0072 13.9213 9.63605 13.4634 9.38045C13.0055 9.12484 12.4885 8.99374 11.9641 9.00023C11.4397 9.00672 10.9262 9.15056 10.4747 9.41742C10.0232 9.68428 9.6496 10.0648 9.39107 10.5211C9.13254 10.9774 8.99815 11.4935 9.00128 12.0179C9.00442 12.5424 9.14498 13.0568 9.40895 13.51C9.67292 13.9632 10.0511 14.3392 10.5057 14.6007C10.9603 14.8621 11.4756 14.9998 12 15C12.5181 15.0003 13.0275 14.8664 13.4785 14.6112C13.9294 14.356 14.3065 13.9883 14.573 13.544L16.288 14.572C15.726 15.5106 14.8716 16.239 13.8559 16.6453C12.8402 17.0517 11.7192 17.1137 10.6649 16.8217C9.61058 16.5298 8.68114 15.9 8.01914 15.029C7.35713 14.1581 6.99912 13.094 7 12C7 9.24 9.24 7 12 7Z" />
        </symbol>
        <symbol id="sprt-menu-line" viewbox="0 0 24 24">
            <path d="M3 4H21V6H3V4ZM3 11H21V13H3V11ZM3 18H21V20H3V18Z" fill="#09121F" />
        </symbol>
        <symbol id="sprt-home" viewbox="0 0 24 24">
            <path
                d="M20 20C20 20.2652 19.8946 20.5196 19.7071 20.7071C19.5196 20.8946 19.2652 21 19 21H5C4.73478 21 4.48043 20.8946 4.29289 20.7071C4.10536 20.5196 4 20.2652 4 20V11H1L11.327 1.612C11.5111 1.44447 11.7511 1.35164 12 1.35164C12.2489 1.35164 12.4889 1.44447 12.673 1.612L23 11H20V20Z" />
        </symbol>
        <symbol id="sprt-search" viewbox="0 0 24 24">
            <path
                d="M18.031 16.617L22.314 20.899L20.899 22.314L16.617 18.031C15.0237 19.3082 13.042 20.0029 11 20C6.032 20 2 15.968 2 11C2 6.032 6.032 2 11 2C15.968 2 20 6.032 20 11C20.0029 13.042 19.3082 15.0237 18.031 16.617ZM16.025 15.875C17.2941 14.5699 18.0029 12.8204 18 11C18 7.132 14.867 4 11 4C7.132 4 4 7.132 4 11C4 14.867 7.132 18 11 18C12.8204 18.0029 14.5699 17.2941 15.875 16.025L16.025 15.875Z" />
        </symbol>
        <symbol id="sprt-arrow-right-triangle" viewbox="0 0 24 24">
            <path d="M16 12L10 18V6L16 12Z" />
        </symbol>
        <symbol id="sprt-timer" viewbox="0 0 24 24">
            <path fill-rule="evenodd" clip-rule="evenodd"
                d="M15 12H13V10C13 9.447 12.552 9 12 9C11.448 9 11 9.447 11 10V13C11 13.553 11.448 14 12 14H15C15.552 14 16 13.553 16 13C16 12.447 15.552 12 15 12ZM12 19.75C8.278 19.75 5.25 16.722 5.25 13C5.25 9.278 8.278 6.25 12 6.25C15.722 6.25 18.75 9.278 18.75 13C18.75 16.722 15.722 19.75 12 19.75ZM12.988 4.058C12.99 4.037 13 4.021 13 4V3H14C14.552 3 15 2.553 15 2C15 1.447 14.552 1 14 1H10C9.448 1 9 1.447 9 2C9 2.553 9.448 3 10 3H11V4C11 4.021 11.01 4.037 11.012 4.058C6.513 4.552 3 8.372 3 13C3 17.963 7.038 22 12 22C16.962 22 21 17.963 21 13C21 8.372 17.487 4.552 12.988 4.058Z" />
        </symbol>
        <symbol id="sprt-person" viewbox="0 0 24 24">
            <path fill-rule="evenodd" clip-rule="evenodd"
                d="M14 7C14 5.897 13.103 5 12 5C10.897 5 10 5.897 10 7C10 8.103 10.897 9 12 9C13.103 9 14 8.103 14 7ZM16 7C16 9.206 14.206 11 12 11C9.794 11 8 9.206 8 7C8 4.794 9.794 3 12 3C14.206 3 16 4.794 16 7ZM5 20C5 16.14 8.141 13 12 13C15.859 13 19 16.14 19 20C19 20.552 18.553 21 18 21C17.447 21 17 20.552 17 20C17 17.243 14.757 15 12 15C9.243 15 7 17.243 7 20C7 20.552 6.553 21 6 21C5.447 21 5 20.552 5 20Z" />
        </symbol>
        <symbol id="sprt-message" viewbox="0 0 24 24">
            <path fill-rule="evenodd" clip-rule="evenodd"
                d="M7.0002 10.9993C7.0002 10.4473 7.4482 9.99927 8.0002 9.99927C8.5522 9.99927 9.0002 10.4473 9.0002 10.9993C9.0002 11.5513 8.5522 11.9993 8.0002 11.9993C7.4482 11.9993 7.0002 11.5513 7.0002 10.9993ZM12.0002 9.99927C11.4482 9.99927 11.0002 10.4473 11.0002 10.9993C11.0002 11.5513 11.4482 11.9993 12.0002 11.9993C12.5522 11.9993 13.0002 11.5513 13.0002 10.9993C13.0002 10.4473 12.5522 9.99927 12.0002 9.99927ZM16.0002 9.99927C15.4482 9.99927 15.0002 10.4473 15.0002 10.9993C15.0002 11.5513 15.4482 11.9993 16.0002 11.9993C16.5522 11.9993 17.0002 11.5513 17.0002 10.9993C17.0002 10.4473 16.5522 9.99927 16.0002 9.99927ZM19.8986 12.2942C19.3916 15.5482 16.7686 18.2472 13.5196 18.8562C11.9506 19.1522 10.3526 18.9832 8.9026 18.3692C8.4916 18.1952 8.0666 18.1072 7.6496 18.1072C7.4596 18.1072 7.2716 18.1252 7.0866 18.1622L4.2746 18.7242L4.8376 15.9072C4.9556 15.3222 4.8836 14.6962 4.6306 14.0972C4.0166 12.6472 3.8486 11.0502 4.1436 9.48017C4.7526 6.23117 7.4506 3.60817 10.7056 3.10117C13.2956 2.69817 15.8286 3.51417 17.6566 5.34217C19.4856 7.17117 20.3026 9.70517 19.8986 12.2942ZM19.0716 3.92817C16.7866 1.64417 13.6266 0.625171 10.3976 1.12417C6.3206 1.76017 2.9406 5.04417 2.1776 9.11117C1.8096 11.0692 2.0216 13.0632 2.7886 14.8762C2.8856 15.1072 2.9156 15.3222 2.8776 15.5152L2.0196 19.8032C1.9536 20.1312 2.0566 20.4702 2.2936 20.7062C2.4826 20.8962 2.7376 20.9992 3.0006 20.9992C3.0656 20.9992 3.1306 20.9932 3.1966 20.9802L7.4796 20.1232C7.7256 20.0762 7.9636 20.1452 8.1226 20.2112C9.9376 20.9782 11.9316 21.1892 13.8876 20.8222C17.9556 20.0592 21.2396 16.6792 21.8756 12.6022C22.3776 9.37517 21.3566 6.21317 19.0716 3.92817Z" />
           
        </symbol>
        <symbol id="sprt-heart" viewbox="0 0 24 24">
            <path d="M12.001 4.52898C14.35 2.41998 17.98 2.48998 20.243 4.75698C22.505 7.02498 22.583 10.637 20.479 12.993L11.999 21.485L3.52101 12.993C1.41701 10.637 1.49601 7.01898 3.75701 4.75698C6.02201 2.49298 9.64501 2.41698 12.001 4.52898V4.52898Z"/>
        </symbol>
        <symbol id="sprt-comment-count" viewbox="0 0 25 25">
            <path d="M6.61376 23.53L1.41081e-05 25L1.47001 18.3862C0.501929 16.5755 -0.00307731 14.5533 1.41081e-05 12.5C1.41081e-05 5.59625 5.59626 0 12.5 0C19.4038 0 25 5.59625 25 12.5C25 19.4037 19.4038 25 12.5 25C10.4467 25.0031 8.42453 24.4981 6.61376 23.53Z"/>
        </symbol>
    </svg>